<svg width="30" height="30" viewBox="0 0 30 30" fill="none" xmlns="http://www.w3.org/2000/svg">
<g clip-path="url(#clip0_16_1703)">
<path d="M14.9991 3.51501C14.5138 3.51501 14.1202 3.90853 14.1202 4.39392C14.1202 4.87931 14.5138 5.27283 14.9991 5.27283C17.9074 5.27283 20.2735 7.63849 20.2735 10.5463C20.2735 11.0317 20.667 11.4252 21.1524 11.4252C21.6378 11.4252 22.0313 11.0317 22.0313 10.5463C22.0313 6.66923 18.8767 3.51501 14.9991 3.51501Z" fill="#252525"/>
<path d="M12.7345 0.236173C8.76362 1.06592 5.54389 4.25482 4.69669 8.25039C3.98132 11.6243 4.86286 15.0116 7.11526 17.5438C8.2163 18.7814 8.8477 20.4152 8.8477 22.0307V23.7885C8.8477 24.958 9.61335 25.9516 10.6696 26.2957C11.0169 28.348 12.7982 29.9994 15 29.9994C17.2014 29.9994 18.9831 28.3485 19.3305 26.2957C20.3867 25.9516 21.1524 24.958 21.1524 23.7885V22.0306C21.1524 20.412 21.7859 18.7979 22.9361 17.4856C24.6197 15.5649 25.5469 13.1004 25.5469 10.5463C25.5469 3.89213 19.4562 -1.16809 12.7345 0.236173ZM15 28.2416C13.8702 28.2416 12.8797 27.4642 12.5139 26.4194H17.4862C17.1204 27.4642 16.1299 28.2416 15 28.2416ZM19.3946 23.7885C19.3946 24.2731 19.0003 24.6674 18.5157 24.6674H11.4844C10.9998 24.6674 10.6055 24.2731 10.6055 23.7885V22.9096H19.3946V23.7885ZM21.6142 16.327C20.3884 17.7255 19.6343 19.4118 19.4429 21.1518H10.5574C10.3662 19.4109 9.61399 17.708 8.42876 16.3755C6.55153 14.2652 5.818 11.4365 6.4163 8.61502C7.11468 5.32123 9.79827 2.64555 13.0941 1.9569C18.7205 0.781094 23.7891 5.00641 23.7891 10.5463C23.7891 12.674 23.0167 14.7269 21.6142 16.327Z" fill="#252525"/>
<path d="M2.63672 10.5463H0.878906C0.393516 10.5463 0 10.9398 0 11.4252C0 11.9106 0.393516 12.3041 0.878906 12.3041H2.63672C3.12211 12.3041 3.51562 11.9106 3.51562 11.4252C3.51562 10.9398 3.12211 10.5463 2.63672 10.5463Z" fill="#252525"/>
<path d="M3.00078 6.15175L1.75783 4.9088C1.41464 4.56556 0.85812 4.56556 0.514878 4.9088C0.171636 5.25204 0.171636 5.80851 0.514878 6.15175L1.75783 7.3947C2.10101 7.73794 2.65753 7.738 3.00078 7.3947C3.34402 7.05146 3.34402 6.49499 3.00078 6.15175Z" fill="#252525"/>
<path d="M3.00078 15.4557C2.65753 15.1124 2.10101 15.1124 1.75783 15.4557L0.514878 16.6986C0.171636 17.0419 0.171636 17.5983 0.514878 17.9416C0.858061 18.2848 1.41458 18.2849 1.75783 17.9416L3.00078 16.6986C3.34402 16.3554 3.34402 15.7989 3.00078 15.4557Z" fill="#252525"/>
<path d="M29.1211 10.5463H27.3633C26.8779 10.5463 26.4844 10.9398 26.4844 11.4252C26.4844 11.9106 26.8779 12.3041 27.3633 12.3041H29.1211C29.6065 12.3041 30 11.9106 30 11.4252C30 10.9398 29.6065 10.5463 29.1211 10.5463Z" fill="#252525"/>
<path d="M29.4852 4.9088C29.142 4.56556 28.5854 4.56556 28.2422 4.9088L26.9993 6.15175C26.656 6.49499 26.656 7.05146 26.9993 7.3947C27.3424 7.73788 27.899 7.73794 28.2422 7.3947L29.4852 6.15175C29.8284 5.80851 29.8284 5.25204 29.4852 4.9088Z" fill="#252525"/>
<path d="M29.4852 16.6986L28.2422 15.4557C27.899 15.1124 27.3425 15.1124 26.9993 15.4557C26.656 15.7989 26.656 16.3554 26.9993 16.6986L28.2422 17.9416C28.5854 18.2848 29.1419 18.2848 29.4852 17.9416C29.8284 17.5983 29.8284 17.0419 29.4852 16.6986Z" fill="#252525"/>
</g>
<defs>
<clipPath id="clip0_16_1703">
<rect width="30" height="30" fill="white"/>
</clipPath>
</defs>
</svg>
